<?xml version="1.0" encoding="utf-8"?>
<!-- Generator: Adobe Illustrator 16.0.4, SVG Export Plug-In . SVG Version: 6.00 Build 0)  -->
<!DOCTYPE svg PUBLIC "-//W3C//DTD SVG 1.1//EN" "http://www.w3.org/Graphics/SVG/1.1/DTD/svg11.dtd">
<svg version="1.1" id="Layer_1" xmlns="http://www.w3.org/2000/svg" xmlns:xlink="http://www.w3.org/1999/xlink" x="0px" y="0px"
	 width="146.792px" height="146.692px" viewBox="0 0 146.792 146.692" enable-background="new 0 0 146.792 146.692"
	 xml:space="preserve">
<g>
	<path fill="#FFFFFF" d="M22.223,49.742c5.275,1.874,23.994,1.397,27.279-0.538c0-8.778,0-17.504,0-26.116
		c-4.591-1.474-23.632-1.337-27.279,0.147C22.223,32.067,22.223,40.958,22.223,49.742z"/>
	<path fill="#FFFFFF" d="M49.427,124.772c0-9.539,0-18.522,0-27.53c-9.292,0-18.172,0-27.443,0
		c0.092,9.346-0.606,18.348,0.408,27.53C31.534,124.772,40.116,124.772,49.427,124.772z"/>
	<path fill="#FFFFFF" d="M124.705,124.587c0.285-9.329,0.111-18.325,0.134-27.366c-9.679,0-18.575,0-27.468,0
		c0,9.26,0,18.145,0,27.366C106.5,124.587,115.207,124.587,124.705,124.587z"/>
	<path fill="#FFFFFF" d="M74.216,108.021c-6.725,6.211-12.937,11.904-19.055,17.695c-0.445,0.422-0.209,1.562-0.354,3.004
		c2.811,2.648,5.796,5.53,8.859,8.328c3.109,2.84,5.413,6.662,9.312,8.334c4.81-3.146,17.33-15.963,19.156-19.699
		C86.055,119.69,79.856,113.581,74.216,108.021z"/>
	<path fill="#FFFFFF" d="M54.429,20.185c6.63,6.495,12.826,12.564,19.059,18.67c4.394-2.619,17.235-15.893,18.648-19.624
		C86.014,13.307,79.756,7.252,73.104,0.816C66.729,7.427,60.591,13.794,54.429,20.185z"/>
	<path fill="#FFFFFF" d="M124.727,22.34c-9.223,0-17.797,0-26.617,0c0,9.306,0,18.315,0,27.39c9.072,0,17.773,0,26.617,0
		C124.727,40.468,124.727,31.573,124.727,22.34z"/>
	<path fill="#FFFFFF" d="M126.229,55.084c-6.498,5.116-12.064,11.713-17.6,17.671c6.483,6.58,12.48,12.666,18.048,18.315
		c5.808-5.817,11.845-11.864,17.505-17.534C138.564,67.763,132.603,61.635,126.229,55.084z"/>
	<path fill="#FFFFFF" d="M20.426,55.915C14.212,60.45,9.21,66.902,3.262,73.234c6.407,6.332,12.447,12.303,18.778,18.561
		c6.34-6.031,12.315-11.379,16.985-17.265C32.684,68.184,26.775,62.27,20.426,55.915z"/>
	<path fill="#FFFFFF" d="M1.862,77.213c-0.351,0.061-0.702,0.121-1.053,0.182c0,7.427,0.109,14.855-0.053,22.279
		c-0.067,3.064,0.88,5.438,3.028,7.542c4.035,3.953,7.959,8.019,11.987,11.979c0.715,0.703,1.71,1.121,3.141,2.029
		c0-8.717,0.067-16.678-0.064-24.635c-0.023-1.387-0.506-3.131-1.428-4.077C12.346,87.305,7.069,82.292,1.862,77.213z"/>
	<path fill="#FFFFFF" d="M54.17,25.887c-0.395,0.237-0.79,0.474-1.185,0.711c0,7.462-0.062,14.926,0.062,22.386
		c0.021,1.231,0.525,2.774,1.364,3.62c5.13,5.179,10.417,10.202,15.681,15.248c0.143,0.136,0.607-0.064,1.633-0.205
		c0-1.953,0.048-4.039-0.009-6.122C71.55,55.574,72.851,49,70.724,43.847c-2.125-5.148-7.68-8.891-11.768-13.215
		C57.413,29,55.769,27.466,54.17,25.887z"/>
	<path fill="#FFFFFF" d="M79.81,75.441c5.761,6.129,11.497,12.232,16.935,18.018c8.199,0,16.076,0,25.299,0
		c-6.589-7.074-12.086-13.482-18.468-18.018C94.982,75.441,87.211,75.441,79.81,75.441z"/>
	<path fill="#FFFFFF" d="M18.737,28.239c-0.509-0.268-1.019-0.536-1.528-0.804C11.338,33.099,5.461,38.758,0.081,44.537
		c0,4.494-0.104,8.475,0.029,12.448c0.133,3.979-0.585,8.055,0.503,12.186c1.094-0.389,1.677-0.424,1.989-0.733
		c4.828-4.789,9.667-9.568,14.38-14.469c0.864-0.898,1.653-2.311,1.678-3.502C18.812,43.06,18.737,35.648,18.737,28.239z"/>
	<path fill="#FFFFFF" d="M53.089,97.355c0,7.752,0,15.837,0,24.917c6.245-6.054,11.956-11.487,17.506-17.083
		c0.821-0.827,1.213-2.41,1.229-3.65c0.091-7.141,0.021-14.285-0.05-21.428c-0.003-0.357-0.531-0.709-0.571-0.758
		C65.277,85.242,59.418,91.065,53.089,97.355z"/>
	<path fill="#FFFFFF" d="M93.887,50.159c0-3.823,0.13-7.974-0.037-12.113c-0.16-3.985,0.73-8.074-0.516-11.806
		c-6.268,5.974-12.359,11.781-18.061,17.215c0,8.655,0,16.776,0,25.354C81.684,62.385,87.646,56.411,93.887,50.159z"/>
	<path fill="#FFFFFF" d="M67.078,75.6c0.06,0.027-0.362-0.324-0.786-0.326c-6.656-0.043-13.321-0.238-19.962,0.074
		c-1.925,0.091-4.127,1.284-5.602,2.63c-4.542,4.146-8.811,8.596-13.143,12.97c-0.605,0.611-0.976,1.455-1.761,2.662
		c8.602,0,16.533,0,23.593,0C55.634,87.27,61.38,81.41,67.078,75.6z"/>
	<path fill="#FFFFFF" d="M145.086,67.705c0.408-0.093,0.816-0.187,1.225-0.28c0.151-6.618,0.256-13.237,0.475-19.852
		c0.094-2.84-0.768-5.147-2.824-7.147c-4.297-4.178-8.469-8.483-12.75-12.677c-0.729-0.714-1.746-1.134-3.23-2.069
		c0,8.238-0.088,15.71,0.082,23.176c0.029,1.338,0.823,2.952,1.783,3.927C134.834,57.848,139.989,62.748,145.086,67.705z"/>
	<path fill="#FFFFFF" d="M67.363,1.456c-0.242-0.472-0.484-0.944-0.727-1.416c-6.278,0-12.558,0.084-18.833-0.038
		c-2.864-0.056-5.116,0.881-7.091,2.893c-4.07,4.146-8.227,8.207-12.309,12.341c-0.87,0.881-1.575,1.926-2.799,3.445
		c8.799,0,16.836,0,25.203,0C56.193,12.965,62.163,7.567,67.363,1.456z"/>
	<path fill="#FFFFFF" d="M79.458,0.324c-0.179,0.374-0.356,0.748-0.535,1.122C85.07,7.408,91.218,13.37,97.005,18.983
		c4.651,0,8.472,0.126,12.279-0.036c3.796-0.162,7.712,0.761,11.246-0.576c-5.983-6.307-11.774-12.411-17.122-18.047
		C94.951,0.324,87.204,0.324,79.458,0.324z"/>
	<path fill="#FFFFFF" d="M121.182,128.105c-8.467,0-17.045,0-26.559,0c-2.447,2.672-5.209,5.761-8.053,8.773
		c-2.722,2.884-5.527,5.688-8.843,9.086c9.548,0,17.989,0,26.702,0C109.905,140.128,115.442,134.225,121.182,128.105z"/>
	<path fill="#FFFFFF" d="M26.316,128.209c-0.19,0.385-0.381,0.77-0.571,1.155c5.647,5.339,11.25,10.728,16.988,15.966
		c0.9,0.822,2.423,1.381,3.647,1.362c7.062-0.108,14.122-0.427,21.183-0.674c0.143-0.325,0.285-0.649,0.428-0.974
		c-5.883-5.686-11.766-11.371-17.42-16.836C42.196,128.209,34.256,128.209,26.316,128.209z"/>
	<path fill="#FFFFFF" d="M128.098,98.385c0,6.532,0,14.762,0,22.488c5.865-5.536,11.851-11.186,17.393-16.418
		c0-8.453,0-16.328,0-24.338C139.902,85.986,134.562,91.594,128.098,98.385z"/>
	<path fill="#FFFFFF" d="M92.824,97.338c-6.535-6.557-12.09-12.129-17.572-17.629c0,7.54,0,15.568,0,22.312
		c6.245,6.498,11.92,12.404,17.572,18.285C92.824,112.121,92.824,103.841,92.824,97.338z"/>
	<path fill="#FFFFFF" d="M26.975,54.123c5.632,6.043,11.232,12.051,16.497,17.7c8.326,0,16.073,0,25.006,0
		c-6.501-6.454-12.299-12.21-17.83-17.7C42.279,54.123,34.491,54.123,26.975,54.123z"/>
	<path fill="#FFFFFF" d="M120.387,54.17c-8.131,0-16.082,0-23.168,0c-6.255,6.133-12.002,11.768-17.984,17.634
		c8.284,0,16.326,0,24.082,0C109.045,65.886,114.558,60.191,120.387,54.17z"/>
	<path fill-rule="evenodd" clip-rule="evenodd" fill="#FFFFFF" d="M22.223,49.742c0-8.784,0-17.674,0-26.506
		c3.647-1.485,22.688-1.621,27.279-0.147c0,8.612,0,17.338,0,26.116C46.217,51.139,27.499,51.615,22.223,49.742z"/>
	<path fill-rule="evenodd" clip-rule="evenodd" fill="#FFFFFF" d="M49.427,124.772c-9.311,0-17.893,0-27.035,0
		c-1.015-9.183-0.316-18.185-0.408-27.53c9.271,0,18.151,0,27.443,0C49.427,106.25,49.427,115.233,49.427,124.772z"/>
	<path fill-rule="evenodd" clip-rule="evenodd" fill="#FFFFFF" d="M124.705,124.587c-9.498,0-18.205,0-27.334,0
		c0-9.222,0-18.106,0-27.366c8.893,0,17.789,0,27.468,0C124.816,106.262,124.99,115.258,124.705,124.587z"/>
	<path fill-rule="evenodd" clip-rule="evenodd" fill="#FFFFFF" d="M74.216,108.021c5.641,5.56,11.839,11.669,17.919,17.662
		c-1.826,3.736-14.347,16.553-19.156,19.699c-3.899-1.672-6.203-5.494-9.312-8.334c-3.062-2.798-6.048-5.68-8.859-8.328
		c0.144-1.441-0.092-2.582,0.354-3.004C61.279,119.926,67.491,114.232,74.216,108.021z"/>
	<path fill-rule="evenodd" clip-rule="evenodd" fill="#FFFFFF" d="M54.429,20.185c6.162-6.391,12.3-12.757,18.674-19.368
		c6.652,6.436,12.91,12.491,19.033,18.415c-1.413,3.731-14.255,17.004-18.648,19.624C67.255,32.749,61.06,26.68,54.429,20.185z"/>
	<path fill-rule="evenodd" clip-rule="evenodd" fill="#FFFFFF" d="M124.727,22.34c0,9.233,0,18.128,0,27.39
		c-8.844,0-17.545,0-26.617,0c0-9.075,0-18.084,0-27.39C106.93,22.34,115.504,22.34,124.727,22.34z"/>
	<path fill-rule="evenodd" clip-rule="evenodd" fill="#FFFFFF" d="M126.229,55.084c6.374,6.551,12.336,12.679,17.953,18.453
		c-5.66,5.67-11.697,11.717-17.505,17.534c-5.567-5.649-11.564-11.735-18.048-18.315C114.164,66.797,119.73,60.201,126.229,55.084z"
		/>
	<path fill-rule="evenodd" clip-rule="evenodd" fill="#FFFFFF" d="M20.426,55.915c6.35,6.355,12.258,12.269,18.599,18.616
		c-4.67,5.886-10.645,11.233-16.985,17.265C15.709,85.537,9.668,79.566,3.262,73.234C9.21,66.902,14.212,60.45,20.426,55.915z"/>
	<path fill-rule="evenodd" clip-rule="evenodd" fill="#FFFFFF" d="M1.862,77.213c5.207,5.079,10.484,10.092,15.558,15.3
		c0.921,0.946,1.405,2.69,1.428,4.077c0.132,7.957,0.064,15.918,0.064,24.635c-1.431-0.908-2.426-1.326-3.141-2.029
		c-4.028-3.961-7.952-8.026-11.987-11.979c-2.147-2.104-3.095-4.478-3.028-7.542C0.919,92.25,0.81,84.821,0.81,77.395
		C1.161,77.334,1.511,77.273,1.862,77.213z"/>
	<path fill-rule="evenodd" clip-rule="evenodd" fill="#FFFFFF" d="M54.17,25.887c1.598,1.579,3.243,3.113,4.785,4.745
		c4.088,4.324,9.643,8.066,11.768,13.215C72.851,49,71.55,55.574,71.716,61.526c0.058,2.083,0.009,4.169,0.009,6.122
		c-1.026,0.141-1.491,0.341-1.633,0.205c-5.263-5.046-10.55-10.069-15.681-15.248c-0.838-0.846-1.343-2.389-1.364-3.62
		c-0.124-7.46-0.062-14.924-0.062-22.386C53.381,26.361,53.775,26.124,54.17,25.887z"/>
	<path fill-rule="evenodd" clip-rule="evenodd" fill="#FFFFFF" d="M79.81,75.441c7.401,0,15.173,0,23.766,0
		c6.382,4.535,11.879,10.943,18.468,18.018c-9.223,0-17.1,0-25.299,0C91.307,87.674,85.57,81.57,79.81,75.441z"/>
	<path fill-rule="evenodd" clip-rule="evenodd" fill="#FFFFFF" d="M18.737,28.239c0,7.41,0.075,14.821-0.077,22.228
		c-0.024,1.191-0.814,2.604-1.678,3.502c-4.713,4.9-9.552,9.68-14.38,14.469c-0.312,0.31-0.895,0.344-1.989,0.733
		c-1.088-4.13-0.37-8.207-0.503-12.186c-0.133-3.973-0.029-7.954-0.029-12.448c5.38-5.779,11.257-11.438,17.128-17.102
		C17.719,27.703,18.228,27.971,18.737,28.239z"/>
	<path fill-rule="evenodd" clip-rule="evenodd" fill="#FFFFFF" d="M53.089,97.355c6.329-6.29,12.188-12.113,18.113-18.002
		c0.04,0.049,0.568,0.4,0.571,0.758c0.072,7.143,0.141,14.287,0.05,21.428c-0.016,1.24-0.408,2.823-1.229,3.65
		c-5.55,5.596-11.261,11.029-17.506,17.083C53.089,113.192,53.089,105.107,53.089,97.355z"/>
	<path fill-rule="evenodd" clip-rule="evenodd" fill="#FFFFFF" d="M93.887,50.159c-6.24,6.252-12.203,12.226-18.613,18.649
		c0-8.578,0-16.699,0-25.354c5.701-5.434,11.793-11.241,18.061-17.215c1.246,3.732,0.355,7.821,0.516,11.806
		C94.017,42.185,93.887,46.335,93.887,50.159z"/>
	<path fill-rule="evenodd" clip-rule="evenodd" fill="#FFFFFF" d="M67.078,75.6c-5.698,5.811-11.444,11.67-17.661,18.01
		c-7.061,0-14.991,0-23.593,0c0.786-1.207,1.156-2.051,1.761-2.662c4.333-4.374,8.601-8.823,13.143-12.97
		c1.475-1.346,3.677-2.539,5.602-2.63c6.641-0.312,13.306-0.117,19.962-0.074C66.716,75.275,67.138,75.627,67.078,75.6z"/>
	<path fill-rule="evenodd" clip-rule="evenodd" fill="#FFFFFF" d="M145.086,67.705c-5.097-4.957-10.252-9.856-15.24-14.921
		c-0.96-0.975-1.754-2.589-1.783-3.927c-0.17-7.466-0.082-14.938-0.082-23.176c1.484,0.935,2.501,1.355,3.23,2.069
		c4.281,4.194,8.453,8.499,12.75,12.677c2.057,2,2.918,4.307,2.824,7.147c-0.219,6.615-0.323,13.234-0.475,19.852
		C145.902,67.518,145.494,67.611,145.086,67.705z"/>
	<path fill-rule="evenodd" clip-rule="evenodd" fill="#FFFFFF" d="M67.363,1.456c-5.2,6.111-11.169,11.509-16.555,17.226
		c-8.366,0-16.404,0-25.203,0c1.224-1.52,1.929-2.564,2.799-3.445c4.082-4.134,8.238-8.196,12.309-12.341
		c1.975-2.011,4.227-2.949,7.091-2.893c6.275,0.123,12.555,0.038,18.833,0.038C66.878,0.512,67.121,0.984,67.363,1.456z"/>
	<path fill-rule="evenodd" clip-rule="evenodd" fill="#FFFFFF" d="M79.458,0.324c7.746,0,15.493,0,23.95,0
		c5.348,5.637,11.139,11.74,17.122,18.047c-3.534,1.337-7.45,0.415-11.246,0.576c-3.808,0.162-7.628,0.036-12.279,0.036
		C91.218,13.37,85.07,7.408,78.923,1.446C79.102,1.072,79.279,0.698,79.458,0.324z"/>
	<path fill-rule="evenodd" clip-rule="evenodd" fill="#FFFFFF" d="M121.182,128.105c-5.739,6.119-11.276,12.022-16.752,17.859
		c-8.713,0-17.154,0-26.702,0c3.315-3.398,6.121-6.202,8.843-9.086c2.844-3.013,5.605-6.102,8.053-8.773
		C104.137,128.105,112.715,128.105,121.182,128.105z"/>
	<path fill-rule="evenodd" clip-rule="evenodd" fill="#FFFFFF" d="M26.316,128.209c7.939,0,15.879,0,24.254,0
		c5.654,5.465,11.538,11.15,17.42,16.836c-0.143,0.324-0.285,0.648-0.428,0.974c-7.061,0.247-14.12,0.565-21.183,0.674
		c-1.224,0.019-2.747-0.54-3.647-1.362c-5.738-5.238-11.341-10.627-16.988-15.966C25.936,128.979,26.126,128.594,26.316,128.209z"/>
	<path fill-rule="evenodd" clip-rule="evenodd" fill="#FFFFFF" d="M128.098,98.385c6.465-6.791,11.805-12.398,17.393-18.268
		c0,8.01,0,15.885,0,24.338c-5.542,5.232-11.527,10.882-17.393,16.418C128.098,113.146,128.098,104.917,128.098,98.385z"/>
	<path fill-rule="evenodd" clip-rule="evenodd" fill="#FFFFFF" d="M92.824,97.338c0,6.503,0,14.783,0,22.969
		c-5.652-5.881-11.327-11.787-17.572-18.285c0-6.744,0-14.772,0-22.312C80.734,85.209,86.289,90.781,92.824,97.338z"/>
	<path fill-rule="evenodd" clip-rule="evenodd" fill="#FFFFFF" d="M26.975,54.123c7.516,0,15.304,0,23.673,0
		c5.53,5.49,11.329,11.246,17.83,17.7c-8.933,0-16.68,0-25.006,0C38.208,66.174,32.607,60.166,26.975,54.123z"/>
	<path fill-rule="evenodd" clip-rule="evenodd" fill="#FFFFFF" d="M120.387,54.17c-5.829,6.021-11.342,11.716-17.07,17.634
		c-7.756,0-15.798,0-24.082,0c5.982-5.867,11.729-11.501,17.984-17.634C104.305,54.17,112.256,54.17,120.387,54.17z"/>
</g>
</svg>
