<?xml version="1.0" encoding="utf-8"?>
<!-- Generator: Adobe Illustrator 16.0.4, SVG Export Plug-In . SVG Version: 6.00 Build 0)  -->
<!DOCTYPE svg PUBLIC "-//W3C//DTD SVG 1.1//EN" "http://www.w3.org/Graphics/SVG/1.1/DTD/svg11.dtd">
<svg version="1.1" id="Layer_1" xmlns="http://www.w3.org/2000/svg" xmlns:xlink="http://www.w3.org/1999/xlink" x="0px" y="0px"
	 width="551.63px" height="146.692px" viewBox="0 0 551.63 146.692" enable-background="new 0 0 551.63 146.692"
	 xml:space="preserve">
<g>
	<path fill="none" d="M384.76,93.809c-2.65-0.859-4.779-1.549-7.212-2.338c0-22.284,0-44.179,0-66.731
		c-6.554,0.52-12.595,0.999-19.059,1.511c-0.126,1.771-0.224,3.133-0.317,4.457c2.885,0.996,5.313,1.834,7.698,2.658
		c0,4.667,0.014,8.821-0.02,12.975c-0.003,0.458-0.269,0.914-0.515,1.693c-2.771,0-5.573-0.167-8.351,0.029
		c-11.884,0.836-20.942,6.104-24.186,18.455c-1.797,6.842-1.709,13.83,0.201,20.631c3.805,13.547,20.868,17.711,30.705,7.602
		c0.996-1.023,1.927-2.109,3.094-3.393c0,1.725-0.032,3.053,0.01,4.379c0.04,1.277,0.158,2.551,0.237,3.752
		c5.413,0.709,14.215-0.436,17.713-2.242C384.76,96.148,384.76,95.008,384.76,93.809z M391.935,97.484
		c8.181,2.629,16.142,3.297,24.045,2.312c7.908-0.984,14.563-4.891,18.415-12.166c5.026-9.492,5.126-19.461,1.146-29.303
		c-4.901-12.118-21.046-13.389-28.831-5.672c-0.758,0.751-1.665,1.351-3.079,2.482c0-10.342,0-19.949,0-30.35
		c-6.416,0.506-12.418,0.98-18.47,1.458c0,1.91,0,3.329,0,4.75c2.397,0.825,4.529,1.559,6.773,2.332
		C391.935,54.796,391.935,75.924,391.935,97.484z M322.994,91.09c0-0.938-0.029-1.768,0.005-2.596
		c0.363-8.764,1.387-17.483,0.031-26.301c-1.237-8.051-6.828-14.526-15.534-14.354c-7.246,0.143-12.912,2.774-17.603,9.161
		c0.312-3.239,0.542-5.613,0.851-8.82c-6.95,1.163-13.386-0.13-19.812,2.402c0.345,1.522,0.619,2.733,0.83,3.663
		c2.615,0.801,4.791,1.468,7.003,2.146c0,11.921,0,23.527,0,35.031c-7.229,3.846-7.229,3.846-7.012,7.333c8.248,0,16.502,0,24.92,0
		c0-1.363,0-2.472,0-3.606c-1.955-1.17-3.779-2.261-5.732-3.429c0-7.917-0.184-15.735,0.081-23.538
		c0.125-3.713,1.828-7.018,4.703-9.598c5.574-5.001,12.849-3.234,14.896,3.878c2.769,9.62,0.739,19.429,1.227,28.914
		c-2.521,1.415-4.538,2.547-6.659,3.738c0,1.218,0,2.314,0,3.641c8.286,0,16.364,0,24.461,0
		C331.238,92.814,325.392,93.804,322.994,91.09z M529.158,73.195c7.045-7.389,11.519-16.561,21.367-20.119c0-1.413,0-2.507,0-3.806
		c-7.3,0-14.361,0-21.675,0c0.073,1.59,0.132,2.864,0.181,3.916c1.602,1.081,2.901,1.958,4.509,3.042
		c-2.966,4.191-5.691,8.042-8.667,12.247c-3.066-4.503-5.731-8.419-8.51-12.498c2.08-1.23,3.737-2.21,5.491-3.249
		c-0.074-1.278-0.137-2.351-0.206-3.552c-8.981,0-17.577,0-26.438,0c0,1.434,0,2.656,0,3.867c2.548,1.364,5.491,2.081,7.079,3.949
		c4.903,5.765,9.289,11.969,13.983,18.143c-7.773,6.84-12.038,16.645-22.287,19.893c0.082,1.522,0.141,2.597,0.201,3.711
		c7.667,0,14.92,0,22.321,0c0-1.366,0-2.46,0-3.58c-1.661-1.021-3.164-1.947-5.092-3.134c2.957-4.214,5.755-8.202,8.88-12.657
		c3.433,4.801,6.401,8.951,9.338,13.059c-1.981,0.91-3.761,1.729-5.521,2.537c0,1.412,0,2.506,0,3.682c9.282,0,18.328,0,27.286,0
		c1.065-3.891-1.781-4.417-3.929-5.536c-1.564-0.815-3.469-1.405-4.535-2.673C538.349,84.988,534.016,79.326,529.158,73.195z
		 M493.864,72.834c0-1.331,0.049-2.663-0.008-3.991c-0.403-9.581-6.139-17.235-15.395-19.709c-3.609-0.965-7.573-1.343-11.292-1.021
		c-9.867,0.856-17.719,5.208-22.021,14.626c-2.796,6.121-2.798,12.653-1.92,19.063c0.627,4.583,2.892,8.629,6.117,12.242
		c6.161,6.9,21.369,7.788,29.882,3.758C489.729,92.83,493.947,84.061,493.864,72.834z M249.855,69.68
		c-1.767,0.13-3.062,0.289-4.361,0.31c-7.09,0.117-13.312,2.576-18.664,7.129c-3.321,2.825-5.444,6.557-4.603,10.949
		c2.07,10.812,10.165,14.205,19.268,11.009c3.696-1.298,6.871-4.079,10.004-6.013c0.869,2.141,1.848,4.555,3.097,7.633
		c5.104-2.408,9.811-4.629,14.846-7.004c-0.651-1.945-1.09-3.253-1.556-4.646c-2.046,0-3.67,0-5.686,0
		c-0.115-1.654-0.299-3.103-0.305-4.552c-0.03-7.497,0.048-14.995-0.033-22.491c-0.076-7.06-3.061-11.542-9.969-12.912
		c-5.272-1.045-10.858-0.895-16.278-0.662c-3.186,0.137-6.32,1.475-9.4,2.254c0,5.055,0,9.481,0,14.046c1.714,0,3.143,0,4.8,0
		c1.359-2.949,2.666-5.784,3.915-8.494c6.577-3.874,10.99-2.684,14.923,3.902C249.855,63.125,249.855,66.114,249.855,69.68z
		 M212.87,49.387c-7.158-2.11-14.098-2.127-20.849-0.172c-6.854,1.985-12.955,8.089-9.956,17.686
		c1.455,4.655,5.192,7.126,9.346,9.08c2.699,1.27,5.474,2.392,8.106,3.784c5.485,2.902,6.193,4.571,4.908,11.253
		c-4.541,3.326-9.289,2.539-13.954,0.358c-1.263-2.897-2.375-5.448-3.469-7.956c-1.796,0-3.216,0-4.865,0c0,5.178,0,10.09,0,15.186
		c7.358,1.745,14.513,2.228,21.739,0.395c6.754-1.714,12.331-6.974,12.972-12.282c0.877-7.265-1.887-11.795-9.652-15.574
		c-3.127-1.522-6.469-2.639-9.489-4.337c-3.607-2.029-5.66-5.082-4.495-9.362c3.358-4.901,7.593-3.079,11.85-1.997
		c0.954,2.463,1.898,4.901,2.97,7.669c1.678-0.099,3.211-0.19,4.837-0.287C212.87,58.163,212.87,54.024,212.87,49.387z
		 M22.223,49.742c5.275,1.874,23.994,1.397,27.279-0.538c0-8.778,0-17.504,0-26.116c-4.591-1.474-23.632-1.337-27.279,0.147
		C22.223,32.067,22.223,40.958,22.223,49.742z M49.427,124.772c0-9.539,0-18.522,0-27.53c-9.292,0-18.172,0-27.443,0
		c0.092,9.346-0.606,18.348,0.408,27.53C31.534,124.772,40.116,124.772,49.427,124.772z M124.705,124.587
		c0.285-9.329,0.111-18.325,0.134-27.366c-9.679,0-18.575,0-27.468,0c0,9.26,0,18.145,0,27.366
		C106.5,124.587,115.208,124.587,124.705,124.587z M74.216,108.021c-6.725,6.211-12.937,11.904-19.055,17.695
		c-0.445,0.422-0.209,1.562-0.354,3.004c2.811,2.648,5.796,5.53,8.859,8.328c3.109,2.84,5.413,6.662,9.312,8.334
		c4.81-3.146,17.331-15.963,19.156-19.699C86.054,119.69,79.856,113.581,74.216,108.021z M54.429,20.185
		c6.63,6.495,12.826,12.564,19.059,18.67c4.394-2.619,17.235-15.893,18.648-19.624C86.014,13.307,79.755,7.252,73.104,0.816
		C66.729,7.427,60.591,13.794,54.429,20.185z M124.726,22.34c-9.223,0-17.797,0-26.617,0c0,9.306,0,18.315,0,27.39
		c9.072,0,17.774,0,26.617,0C124.726,40.468,124.726,31.573,124.726,22.34z M126.229,55.084
		c-6.499,5.116-12.064,11.713-17.601,17.671c6.484,6.58,12.481,12.666,18.048,18.315c5.807-5.817,11.845-11.864,17.505-17.534
		C138.564,67.763,132.603,61.635,126.229,55.084z M20.426,55.915C14.212,60.45,9.21,66.902,3.262,73.234
		c6.407,6.332,12.447,12.303,18.778,18.561c6.34-6.031,12.315-11.379,16.985-17.265C32.684,68.184,26.775,62.27,20.426,55.915z
		 M1.862,77.213c-0.351,0.061-0.702,0.121-1.053,0.182c0,7.427,0.109,14.855-0.053,22.279c-0.067,3.064,0.88,5.438,3.028,7.542
		c4.035,3.953,7.959,8.019,11.987,11.979c0.715,0.703,1.71,1.121,3.141,2.029c0-8.717,0.067-16.678-0.064-24.635
		c-0.023-1.387-0.506-3.131-1.428-4.077C12.346,87.305,7.069,82.292,1.862,77.213z M54.17,25.887
		c-0.395,0.237-0.79,0.474-1.185,0.711c0,7.462-0.062,14.926,0.062,22.386c0.021,1.231,0.525,2.774,1.364,3.62
		c5.13,5.179,10.417,10.202,15.681,15.248c0.143,0.136,0.607-0.064,1.633-0.205c0-1.953,0.048-4.039-0.009-6.122
		C71.55,55.574,72.851,49,70.724,43.847c-2.125-5.148-7.68-8.891-11.768-13.215C57.413,29,55.769,27.466,54.17,25.887z
		 M79.81,75.441c5.76,6.129,11.497,12.232,16.934,18.018c8.199,0,16.077,0,25.299,0c-6.589-7.074-12.086-13.482-18.468-18.018
		C94.982,75.441,87.211,75.441,79.81,75.441z M18.737,28.239c-0.509-0.268-1.019-0.536-1.528-0.804
		C11.338,33.099,5.461,38.758,0.081,44.537c0,4.494-0.104,8.475,0.029,12.448c0.133,3.979-0.585,8.055,0.503,12.186
		c1.094-0.389,1.677-0.424,1.989-0.733c4.828-4.789,9.667-9.568,14.38-14.469c0.864-0.898,1.653-2.311,1.678-3.502
		C18.812,43.06,18.737,35.648,18.737,28.239z M53.089,97.355c0,7.752,0,15.837,0,24.917c6.245-6.054,11.956-11.487,17.506-17.083
		c0.821-0.827,1.213-2.41,1.229-3.65c0.091-7.141,0.021-14.285-0.05-21.428c-0.003-0.357-0.531-0.709-0.571-0.758
		C65.277,85.242,59.418,91.065,53.089,97.355z M93.887,50.159c0-3.823,0.13-7.974-0.037-12.113
		c-0.161-3.985,0.731-8.074-0.516-11.806c-6.267,5.974-12.36,11.781-18.061,17.215c0,8.655,0,16.776,0,25.354
		C81.684,62.385,87.646,56.411,93.887,50.159z M67.078,75.6c0.06,0.027-0.362-0.324-0.786-0.326
		c-6.656-0.043-13.321-0.238-19.962,0.074c-1.925,0.091-4.127,1.284-5.602,2.63c-4.542,4.146-8.811,8.596-13.143,12.97
		c-0.605,0.611-0.976,1.455-1.761,2.662c8.602,0,16.533,0,23.593,0C55.634,87.27,61.38,81.41,67.078,75.6z M145.086,67.705
		c0.408-0.093,0.816-0.187,1.225-0.28c0.151-6.618,0.255-13.237,0.474-19.852c0.094-2.84-0.767-5.147-2.824-7.147
		c-4.296-4.178-8.469-8.483-12.75-12.677c-0.729-0.714-1.746-1.134-3.23-2.069c0,8.238-0.088,15.71,0.082,23.176
		c0.03,1.338,0.824,2.952,1.784,3.927C134.833,57.848,139.989,62.748,145.086,67.705z M67.363,1.456
		c-0.242-0.472-0.484-0.944-0.727-1.416c-6.278,0-12.558,0.084-18.833-0.038c-2.864-0.056-5.116,0.881-7.091,2.893
		c-4.07,4.146-8.227,8.207-12.309,12.341c-0.87,0.881-1.575,1.926-2.799,3.445c8.799,0,16.836,0,25.203,0
		C56.193,12.965,62.163,7.567,67.363,1.456z M79.458,0.324c-0.179,0.374-0.357,0.748-0.535,1.122
		C85.07,7.408,91.218,13.37,97.005,18.983c4.652,0,8.472,0.126,12.279-0.036c3.795-0.162,7.712,0.761,11.246-0.576
		c-5.984-6.307-11.775-12.411-17.123-18.047C94.951,0.324,87.204,0.324,79.458,0.324z M121.182,128.105c-8.467,0-17.046,0-26.56,0
		c-2.446,2.672-5.209,5.761-8.053,8.773c-2.721,2.884-5.527,5.688-8.842,9.086c9.547,0,17.99,0,26.702,0
		C109.905,140.128,115.442,134.225,121.182,128.105z M26.316,128.209c-0.19,0.385-0.381,0.77-0.571,1.155
		c5.647,5.339,11.25,10.728,16.988,15.966c0.9,0.822,2.423,1.381,3.647,1.362c7.062-0.108,14.122-0.427,21.183-0.674
		c0.143-0.325,0.285-0.649,0.428-0.974c-5.883-5.686-11.766-11.371-17.42-16.836C42.196,128.209,34.256,128.209,26.316,128.209z
		 M128.098,98.385c0,6.532,0,14.762,0,22.488c5.865-5.536,11.851-11.186,17.393-16.418c0-8.453,0-16.328,0-24.338
		C139.902,85.986,134.563,91.594,128.098,98.385z M92.824,97.338c-6.535-6.557-12.089-12.129-17.571-17.629
		c0,7.54,0,15.568,0,22.312c6.245,6.498,11.92,12.404,17.571,18.285C92.824,112.121,92.824,103.841,92.824,97.338z M26.975,54.123
		c5.632,6.043,11.232,12.051,16.497,17.7c8.326,0,16.073,0,25.006,0c-6.501-6.454-12.299-12.21-17.83-17.7
		C42.279,54.123,34.491,54.123,26.975,54.123z M120.386,54.17c-8.131,0-16.081,0-23.167,0c-6.255,6.133-12.001,11.768-17.985,17.634
		c8.285,0,16.327,0,24.082,0C109.045,65.886,114.558,60.191,120.386,54.17z"/>
	<path fill-rule="evenodd" clip-rule="evenodd" fill="#2FBEE2" d="M384.76,93.809c0,1.199,0,2.34,0,3.438
		c-3.498,1.807-12.3,2.951-17.713,2.242c-0.079-1.201-0.197-2.475-0.237-3.752c-0.042-1.326-0.01-2.654-0.01-4.379
		c-1.167,1.283-2.098,2.369-3.094,3.393c-9.837,10.109-26.9,5.945-30.705-7.602c-1.91-6.802-1.998-13.789-0.201-20.631
		c3.243-12.351,12.302-17.619,24.186-18.455c2.777-0.195,5.579-0.029,8.351-0.029c0.246-0.779,0.512-1.235,0.515-1.693
		c0.033-4.154,0.02-8.308,0.02-12.975c-2.385-0.823-4.813-1.662-7.698-2.658c0.094-1.324,0.191-2.687,0.317-4.457
		c6.464-0.512,12.505-0.991,19.059-1.511c0,22.552,0,44.447,0,66.731C379.98,92.26,382.109,92.949,384.76,93.809z M366.321,57.554
		c-10.002-5.808-19.818-2.112-21.565,7.229c-0.547,2.922-1.667,5.851-1.584,8.75c0.146,5.097,0.512,10.314,3.814,14.658
		c3.685,4.846,10.134,5.407,14.277,0.953c1.624-1.748,3.344-4.109,3.562-6.334C365.649,74.414,365.874,65.959,366.321,57.554z"/>
	<path fill-rule="evenodd" clip-rule="evenodd" fill="#2FBEE2" d="M391.935,97.484c0-21.561,0-42.688,0-64.157
		c-2.244-0.772-4.376-1.506-6.773-2.332c0-1.421,0-2.84,0-4.75c6.052-0.478,12.054-0.952,18.47-1.458c0,10.401,0,20.007,0,30.35
		c1.414-1.131,2.321-1.731,3.079-2.482c7.785-7.717,23.93-6.446,28.831,5.672c3.979,9.842,3.88,19.811-1.146,29.303
		c-3.852,7.275-10.507,11.182-18.415,12.166C408.076,100.781,400.115,100.113,391.935,97.484z M403.892,91.087
		c3.218,2.536,6.672,2.524,9.852,2.368c5.246-0.258,8.804-3.176,10.702-8.254c2.304-6.166,1.838-12.468,1.082-18.71
		c-0.396-3.271-2.143-6.252-4.898-8.436c-3.557-2.817-7.94-2.832-11.411,0.073c-3.381,2.829-5.17,6.553-5.276,10.865
		C403.761,76.312,403.892,83.639,403.892,91.087z"/>
	<path fill-rule="evenodd" clip-rule="evenodd" fill="#2FBEE2" d="M322.994,91.09c2.397,2.714,8.244,1.725,6.655,7.664
		c-8.097,0-16.175,0-24.461,0c0-1.326,0-2.423,0-3.641c2.121-1.191,4.139-2.323,6.659-3.738c-0.487-9.484,1.542-19.294-1.227-28.914
		c-2.047-7.112-9.321-8.879-14.896-3.878c-2.875,2.58-4.578,5.885-4.703,9.598c-0.265,7.803-0.081,15.621-0.081,23.538
		c1.953,1.168,3.777,2.259,5.732,3.429c0,1.135,0,2.243,0,3.606c-8.418,0-16.672,0-24.92,0c-0.217-3.487-0.217-3.487,7.012-7.333
		c0-11.504,0-23.109,0-35.031c-2.212-0.678-4.388-1.345-7.003-2.146c-0.211-0.93-0.485-2.141-0.83-3.663
		c6.426-2.532,12.861-1.239,19.812-2.402c-0.309,3.208-0.538,5.581-0.851,8.82c4.69-6.387,10.356-9.019,17.603-9.161
		c8.706-0.172,14.297,6.304,15.534,14.354c1.355,8.817,0.332,17.537-0.031,26.301C322.965,89.322,322.994,90.152,322.994,91.09z"/>
	<path fill-rule="evenodd" clip-rule="evenodd" fill="#2FBEE2" d="M529.158,73.195c4.857,6.131,9.19,11.793,13.777,17.242
		c1.066,1.268,2.971,1.857,4.535,2.673c2.147,1.119,4.994,1.646,3.929,5.536c-8.958,0-18.004,0-27.286,0c0-1.176,0-2.27,0-3.682
		c1.761-0.809,3.54-1.627,5.521-2.537c-2.937-4.107-5.905-8.258-9.338-13.059c-3.125,4.455-5.923,8.443-8.88,12.657
		c1.928,1.187,3.431,2.112,5.092,3.134c0,1.12,0,2.214,0,3.58c-7.401,0-14.654,0-22.321,0c-0.061-1.114-0.119-2.188-0.201-3.711
		c10.249-3.248,14.514-13.053,22.287-19.893c-4.694-6.174-9.08-12.378-13.983-18.143c-1.588-1.868-4.531-2.585-7.079-3.949
		c0-1.211,0-2.433,0-3.867c8.86,0,17.456,0,26.438,0c0.069,1.201,0.132,2.273,0.206,3.552c-1.754,1.038-3.411,2.018-5.491,3.249
		c2.778,4.079,5.443,7.995,8.51,12.498c2.976-4.206,5.701-8.056,8.667-12.247c-1.607-1.084-2.907-1.962-4.509-3.042
		c-0.049-1.052-0.107-2.326-0.181-3.916c7.313,0,14.375,0,21.675,0c0,1.299,0,2.393,0,3.806
		C540.677,56.635,536.203,65.807,529.158,73.195z"/>
	<path fill-rule="evenodd" clip-rule="evenodd" fill="#2FBEE2" d="M493.864,72.834c0.083,11.227-4.136,19.996-14.637,24.969
		c-8.513,4.03-23.721,3.143-29.882-3.758c-3.226-3.613-5.49-7.659-6.117-12.242c-0.878-6.41-0.876-12.943,1.92-19.063
		c4.303-9.419,12.154-13.77,22.021-14.626c3.719-0.323,7.683,0.056,11.292,1.021c9.256,2.475,14.991,10.128,15.395,19.709
		C493.913,70.171,493.864,71.503,493.864,72.834z M462.137,56.123c-1.461,1.562-3.726,3.074-4.699,5.182
		c-4,8.662-3.896,17.448,1.146,25.668c2.586,4.217,7.008,6.312,11.947,5.776c5.037-0.546,8.533-3.831,10.056-8.583
		c1.966-6.133,1.975-12.502-0.053-18.613c-1.71-5.154-5.349-10.302-13.342-9.707C465.863,55.945,464.532,55.994,462.137,56.123z"/>
	<path fill-rule="evenodd" clip-rule="evenodd" fill="#2FBEE2" d="M249.855,69.68c0-3.565,0-6.554-0.001-9.542
		c-3.932-6.586-8.345-7.775-14.922-3.902c-1.249,2.71-2.556,5.545-3.915,8.494c-1.657,0-3.086,0-4.8,0c0-4.564,0-8.991,0-14.046
		c3.081-0.779,6.215-2.117,9.4-2.254c5.42-0.233,11.006-0.383,16.278,0.662c6.908,1.37,9.893,5.853,9.969,12.912
		c0.081,7.496,0.003,14.994,0.033,22.491c0.006,1.449,0.189,2.897,0.305,4.552c2.016,0,3.64,0,5.686,0
		c0.466,1.394,0.904,2.701,1.556,4.646c-5.035,2.375-9.742,4.596-14.846,7.004c-1.249-3.078-2.229-5.492-3.097-7.633
		c-3.133,1.934-6.308,4.715-10.004,6.013c-9.103,3.196-17.197-0.197-19.268-11.009c-0.841-4.393,1.282-8.124,4.603-10.949
		c5.352-4.553,11.573-7.013,18.664-7.129C246.792,69.969,248.088,69.81,249.855,69.68z M249.791,75.146
		c-6.114,0.932-12.323,0.168-15.537,6.574c-0.459,5.751,1.474,9.243,5.607,10.133c3.724,0.802,9.104-2.527,9.822-6.683
		C250.229,82.011,249.791,78.682,249.791,75.146z"/>
	<path fill-rule="evenodd" clip-rule="evenodd" fill="#2FBEE2" d="M212.87,49.387c0,4.637,0,8.776,0,13.442
		c-1.626,0.096-3.159,0.188-4.837,0.287c-1.072-2.768-2.016-5.206-2.97-7.669c-4.257-1.082-8.491-2.904-11.85,1.997
		c-1.165,4.281,0.887,7.333,4.495,9.362c3.02,1.699,6.362,2.815,9.489,4.337c7.765,3.779,10.529,8.31,9.652,15.574
		c-0.641,5.309-6.218,10.568-12.972,12.282c-7.226,1.833-14.381,1.351-21.739-0.395c0-5.096,0-10.008,0-15.186
		c1.648,0,3.069,0,4.865,0c1.093,2.508,2.206,5.059,3.469,7.956c4.665,2.181,9.413,2.968,13.954-0.358
		c1.285-6.682,0.577-8.351-4.908-11.253c-2.632-1.393-5.407-2.515-8.106-3.784c-4.154-1.954-7.891-4.425-9.346-9.08
		c-3-9.596,3.102-15.701,9.956-17.686C198.772,47.26,205.712,47.277,212.87,49.387z"/>
	<path fill-rule="evenodd" clip-rule="evenodd" fill="#2FBEE2" d="M22.223,49.742c0-8.784,0-17.674,0-26.506
		c3.647-1.485,22.688-1.621,27.279-0.147c0,8.612,0,17.338,0,26.116C46.217,51.139,27.499,51.615,22.223,49.742z"/>
	<path fill-rule="evenodd" clip-rule="evenodd" fill="#2FBEE2" d="M49.427,124.772c-9.311,0-17.893,0-27.035,0
		c-1.015-9.183-0.316-18.185-0.408-27.53c9.271,0,18.151,0,27.443,0C49.427,106.25,49.427,115.233,49.427,124.772z"/>
	<path fill-rule="evenodd" clip-rule="evenodd" fill="#2FBEE2" d="M124.705,124.587c-9.498,0-18.206,0-27.334,0
		c0-9.222,0-18.106,0-27.366c8.893,0,17.789,0,27.468,0C124.816,106.262,124.99,115.258,124.705,124.587z"/>
	<path fill-rule="evenodd" clip-rule="evenodd" fill="#2FBEE2" d="M74.216,108.021c5.641,5.56,11.838,11.669,17.918,17.662
		c-1.825,3.736-14.346,16.553-19.156,19.699c-3.899-1.672-6.203-5.494-9.312-8.334c-3.062-2.798-6.048-5.68-8.859-8.328
		c0.144-1.441-0.092-2.582,0.354-3.004C61.279,119.926,67.491,114.232,74.216,108.021z"/>
	<path fill-rule="evenodd" clip-rule="evenodd" fill="#2FBEE2" d="M54.429,20.185c6.162-6.391,12.3-12.757,18.674-19.368
		c6.652,6.436,12.91,12.491,19.033,18.415c-1.413,3.731-14.255,17.004-18.648,19.624C67.255,32.749,61.06,26.68,54.429,20.185z"/>
	<path fill-rule="evenodd" clip-rule="evenodd" fill="#2FBEE2" d="M124.726,22.34c0,9.233,0,18.128,0,27.39
		c-8.843,0-17.545,0-26.617,0c0-9.075,0-18.084,0-27.39C106.929,22.34,115.503,22.34,124.726,22.34z"/>
	<path fill-rule="evenodd" clip-rule="evenodd" fill="#2FBEE2" d="M126.229,55.084c6.374,6.551,12.335,12.679,17.953,18.453
		c-5.66,5.67-11.698,11.717-17.505,17.534c-5.567-5.649-11.564-11.735-18.048-18.315C114.165,66.797,119.73,60.201,126.229,55.084z"
		/>
	<path fill-rule="evenodd" clip-rule="evenodd" fill="#2FBEE2" d="M20.426,55.915c6.35,6.355,12.258,12.269,18.599,18.616
		c-4.67,5.886-10.645,11.233-16.985,17.265C15.709,85.537,9.668,79.566,3.262,73.234C9.21,66.902,14.212,60.45,20.426,55.915z"/>
	<path fill-rule="evenodd" clip-rule="evenodd" fill="#2FBEE2" d="M1.862,77.213c5.207,5.079,10.484,10.092,15.558,15.3
		c0.921,0.946,1.405,2.69,1.428,4.077c0.132,7.957,0.064,15.918,0.064,24.635c-1.431-0.908-2.426-1.326-3.141-2.029
		c-4.028-3.961-7.952-8.026-11.987-11.979c-2.147-2.104-3.095-4.478-3.028-7.542C0.919,92.25,0.81,84.821,0.81,77.395
		C1.161,77.334,1.511,77.273,1.862,77.213z"/>
	<path fill-rule="evenodd" clip-rule="evenodd" fill="#2FBEE2" d="M54.17,25.887c1.598,1.579,3.243,3.113,4.785,4.745
		c4.088,4.324,9.643,8.066,11.768,13.215C72.851,49,71.55,55.574,71.716,61.526c0.058,2.083,0.009,4.169,0.009,6.122
		c-1.026,0.141-1.491,0.341-1.633,0.205c-5.263-5.046-10.55-10.069-15.681-15.248c-0.838-0.846-1.343-2.389-1.364-3.62
		c-0.124-7.46-0.062-14.924-0.062-22.386C53.381,26.361,53.775,26.124,54.17,25.887z"/>
	<path fill-rule="evenodd" clip-rule="evenodd" fill="#2FBEE2" d="M79.81,75.441c7.401,0,15.172,0,23.766,0
		c6.382,4.535,11.879,10.943,18.468,18.018c-9.223,0-17.1,0-25.299,0C91.307,87.674,85.57,81.57,79.81,75.441z"/>
	<path fill-rule="evenodd" clip-rule="evenodd" fill="#2FBEE2" d="M18.737,28.239c0,7.41,0.075,14.821-0.077,22.228
		c-0.024,1.191-0.814,2.604-1.678,3.502c-4.713,4.9-9.552,9.68-14.38,14.469c-0.312,0.31-0.895,0.344-1.989,0.733
		c-1.088-4.13-0.37-8.207-0.503-12.186c-0.133-3.973-0.029-7.954-0.029-12.448c5.38-5.779,11.257-11.438,17.128-17.102
		C17.719,27.703,18.228,27.971,18.737,28.239z"/>
	<path fill-rule="evenodd" clip-rule="evenodd" fill="#2FBEE2" d="M53.089,97.355c6.329-6.29,12.188-12.113,18.113-18.002
		c0.04,0.049,0.568,0.4,0.571,0.758c0.072,7.143,0.141,14.287,0.05,21.428c-0.016,1.24-0.408,2.823-1.229,3.65
		c-5.55,5.596-11.261,11.029-17.506,17.083C53.089,113.192,53.089,105.107,53.089,97.355z"/>
	<path fill-rule="evenodd" clip-rule="evenodd" fill="#2FBEE2" d="M93.887,50.159c-6.241,6.252-12.203,12.226-18.613,18.649
		c0-8.578,0-16.699,0-25.354c5.701-5.434,11.793-11.241,18.061-17.215c1.247,3.732,0.355,7.821,0.516,11.806
		C94.017,42.185,93.887,46.335,93.887,50.159z"/>
	<path fill-rule="evenodd" clip-rule="evenodd" fill="#2FBEE2" d="M67.078,75.6c-5.698,5.811-11.444,11.67-17.661,18.01
		c-7.061,0-14.991,0-23.593,0c0.786-1.207,1.156-2.051,1.761-2.662c4.333-4.374,8.601-8.823,13.143-12.97
		c1.475-1.346,3.677-2.539,5.602-2.63c6.641-0.312,13.306-0.117,19.962-0.074C66.716,75.275,67.138,75.627,67.078,75.6z"/>
	<path fill-rule="evenodd" clip-rule="evenodd" fill="#2FBEE2" d="M145.086,67.705c-5.097-4.957-10.253-9.856-15.241-14.921
		c-0.96-0.975-1.753-2.589-1.784-3.927c-0.17-7.466-0.082-14.938-0.082-23.176c1.484,0.935,2.501,1.355,3.23,2.069
		c4.281,4.194,8.454,8.499,12.75,12.677c2.057,2,2.918,4.307,2.824,7.147c-0.218,6.615-0.323,13.234-0.474,19.852
		C145.903,67.518,145.495,67.611,145.086,67.705z"/>
	<path fill-rule="evenodd" clip-rule="evenodd" fill="#2FBEE2" d="M67.363,1.456c-5.2,6.111-11.169,11.509-16.555,17.226
		c-8.366,0-16.404,0-25.203,0c1.224-1.52,1.929-2.564,2.799-3.445c4.082-4.134,8.238-8.196,12.309-12.341
		c1.975-2.011,4.227-2.949,7.091-2.893c6.275,0.123,12.555,0.038,18.833,0.038C66.878,0.512,67.121,0.984,67.363,1.456z"/>
	<path fill-rule="evenodd" clip-rule="evenodd" fill="#2FBEE2" d="M79.458,0.324c7.746,0,15.493,0,23.95,0
		c5.348,5.637,11.139,11.74,17.123,18.047c-3.534,1.337-7.451,0.415-11.246,0.576c-3.808,0.162-7.627,0.036-12.279,0.036
		C91.218,13.37,85.07,7.408,78.923,1.446C79.101,1.072,79.279,0.698,79.458,0.324z"/>
	<path fill-rule="evenodd" clip-rule="evenodd" fill="#2FBEE2" d="M121.182,128.105c-5.74,6.119-11.277,12.022-16.752,17.859
		c-8.712,0-17.155,0-26.702,0c3.315-3.398,6.121-6.202,8.842-9.086c2.844-3.013,5.606-6.102,8.053-8.773
		C104.136,128.105,112.715,128.105,121.182,128.105z"/>
	<path fill-rule="evenodd" clip-rule="evenodd" fill="#2FBEE2" d="M26.316,128.209c7.939,0,15.879,0,24.254,0
		c5.654,5.465,11.538,11.15,17.42,16.836c-0.143,0.324-0.285,0.648-0.428,0.974c-7.061,0.247-14.12,0.565-21.183,0.674
		c-1.224,0.019-2.747-0.54-3.647-1.362c-5.738-5.238-11.341-10.627-16.988-15.966C25.936,128.979,26.126,128.594,26.316,128.209z"/>
	<path fill-rule="evenodd" clip-rule="evenodd" fill="#2FBEE2" d="M128.098,98.385c6.465-6.791,11.805-12.398,17.393-18.268
		c0,8.01,0,15.885,0,24.338c-5.542,5.232-11.528,10.882-17.393,16.418C128.098,113.146,128.098,104.917,128.098,98.385z"/>
	<path fill-rule="evenodd" clip-rule="evenodd" fill="#2FBEE2" d="M92.824,97.338c0,6.503,0,14.783,0,22.969
		c-5.651-5.881-11.327-11.787-17.571-18.285c0-6.744,0-14.772,0-22.312C80.735,85.209,86.289,90.781,92.824,97.338z"/>
	<path fill-rule="evenodd" clip-rule="evenodd" fill="#2FBEE2" d="M26.975,54.123c7.516,0,15.304,0,23.673,0
		c5.53,5.49,11.329,11.246,17.83,17.7c-8.933,0-16.68,0-25.006,0C38.208,66.174,32.607,60.166,26.975,54.123z"/>
	<path fill-rule="evenodd" clip-rule="evenodd" fill="#2FBEE2" d="M120.386,54.17c-5.829,6.021-11.341,11.716-17.07,17.634
		c-7.755,0-15.797,0-24.082,0c5.983-5.867,11.73-11.501,17.985-17.634C104.305,54.17,112.255,54.17,120.386,54.17z"/>
	<path fill-rule="evenodd" clip-rule="evenodd" fill="none" d="M366.321,57.554c-0.447,8.405-0.672,16.86-1.495,25.257
		c-0.219,2.225-1.938,4.586-3.562,6.334c-4.144,4.454-10.593,3.893-14.277-0.953c-3.303-4.344-3.669-9.562-3.814-14.658
		c-0.083-2.899,1.037-5.828,1.584-8.75C346.503,55.441,356.319,51.746,366.321,57.554z"/>
	<path fill-rule="evenodd" clip-rule="evenodd" fill="none" d="M403.892,91.087c0-7.448-0.131-14.774,0.05-22.093
		c0.106-4.312,1.896-8.036,5.276-10.865c3.471-2.905,7.854-2.891,11.411-0.073c2.756,2.183,4.502,5.164,4.898,8.436
		c0.756,6.243,1.222,12.544-1.082,18.71c-1.898,5.078-5.456,7.996-10.702,8.254C410.563,93.611,407.109,93.623,403.892,91.087z"/>
	<path fill-rule="evenodd" clip-rule="evenodd" fill="none" d="M462.137,56.123c2.396-0.129,3.727-0.177,5.055-0.276
		c7.993-0.595,11.632,4.552,13.342,9.707c2.027,6.111,2.019,12.48,0.053,18.613c-1.522,4.752-5.019,8.037-10.056,8.583
		c-4.939,0.535-9.361-1.56-11.947-5.776c-5.041-8.22-5.146-17.006-1.146-25.668C458.411,59.196,460.676,57.685,462.137,56.123z"/>
	<path fill-rule="evenodd" clip-rule="evenodd" fill="none" d="M249.791,75.146c0,3.535,0.438,6.864-0.108,10.024
		c-0.718,4.155-6.098,7.484-9.822,6.683c-4.133-0.89-6.066-4.382-5.606-10.129C237.468,75.314,243.677,76.078,249.791,75.146z"/>
</g>
</svg>
